<?xml version="1.0" encoding="UTF-8"?>
<svg id="Layer_2" data-name="Layer 2" xmlns="http://www.w3.org/2000/svg" viewBox="0 0 506.13 470">
  <defs>
    <style>
      .cls-1 {
        fill: #f7de86;
      }

      .cls-2 {
        fill: #f1c21b;
      }

      .cls-3 {
        fill: #f5d566;
      }

      .cls-4 {
        fill: #f1c118;
      }

      .cls-5 {
        fill: #fbedc1;
      }

      .cls-6 {
        fill: #f4d158;
      }

      .cls-7 {
        fill: #f4cf50;
      }

      .cls-8 {
        fill: #f1c119;
      }

      .cls-9 {
        fill: #f1c117;
      }

      .cls-10 {
        fill: #f1c016;
      }
    </style>
  </defs>
  <g id="Layer_1-2" data-name="Layer 1">
    <g>
      <path class="cls-10" d="M179.07,0c12.95,4.49,6.36,12.5,5.94,21.49-.59,12.36,8.09,8.62,16.56,9.51,11.59,1.22,17.02,15.2,29.99,14.05s4.5-23.33,22.19-16.23c10.03,4.02,23.49,12.19,34.8,12.19h23.5c-11.55,9.51-28.2,6.42-41.26,1.76-4.2-1.5-19.67-9.95-22-9.6-6.88,1.02-3.19,13.7-11.73,17.33-12.97,5.52-22.14-8.85-32.72-12.26-8.69-2.81-19.6,0-23.33-10.66-2.39-6.82-1.1-13.6.04-20.52-16.52-2.34-34.97-.88-51.18,3.24-12.22,3.1-24.1,9.75-37.21,7.65-2.27-.36-5.76-3.15-6.96-2.86-.58.14-3.6,4.61-5.12,5.9-6.44,5.46-11.82,5.57-16.86,14.13-11.59,19.68-12.55,19.11-28.62,34.37-21.64,20.56-24.36,28.97-26.97,59.02l-1.8,38.78c.63,2.72,17.93,22.05,21.27,25.72,6.61,7.26,22.61,25.7,31.45,27.54,4.92,1.03,14.1-.11,19.55-.56,17.7-1.48,37.67-4.45,53.48-12.49-17.58-17-36.42-32.96-53-50.97-16.1-17.49-21.39-21.49-11.99-46.05,8.84-23.12,37.96-54.02,62.02-60.97,25.38-7.33,47.44,4.33,69.97,14.51,0,1.75-4.39,1.11-5.53,1.02-19.44-1.4-31.35-13.03-53.94-11.02-29.54,2.62-57.93,35.9-67.98,62-6.74,17.48.01,22.87,10.97,35,19.1,21.15,50.64,53.03,73.03,69.96,5.04,3.81,13.7,10.92,19.5,4.56,6.74-7.4,6.11-45.35,4.85-55.9-1.87-15.56-13.13-41.58-5.96-55.2.54-1.02-.54-1.91,2.08-1.43,2.12,14.6,5.95,29,7.86,43.65,3.29,25.3,4.15,48.32-1.35,73.37-3.73,16.99-10.28,22.8-.32,40.29,8.73,15.34,21.21,24.31,22.78,44.21,1.27,15.99-5.5,20.19-8.92,33.04-5.83,21.89,14.75,32.57,18.67,52.22,1.29,6.47.76,14.02,2.78,20.22,3.37,10.34,16.06,16.64,17.4,26.6.63,4.67-1.36,12.55,2.03,15.96,4.12,4.14,7.87-1.07,11.65-1.53,1.24-.15,6.03.48,6.4.99,2.39,3.31-14.74,5.88-15.99,7.99h-3c-9.39-6.74-3.96-17.86-8.09-27.41-3.29-7.6-12.38-12.25-15.38-20.62-3.36-9.37-1.69-20.05-5.34-29.66-3.78-9.96-14.82-18.09-17.33-28.67-3.58-15.1,5.52-23.62,8.68-36.62,8.45-34.74-42.42-56.53-23.53-92.02-9.26-1.48-17.08-4.2-24.47-10.03-3.92-3.09-8.81-10.28-14.1-10.96-4.73-.61-16.27,5.32-21.99,6.91-15.79,4.37-49.9,7.25-64.68.86-15.97-6.91-23.11-24.7-34.2-36.79-4.87-5.31-10.61-8.82-15.51-13.99.23-4.96-.32-10.05,0-15l1.97-39.69c2.2-18.87,7.31-36.15,23.07-47.96,14.31-10.36,27.05-20.55,32.21-38.03,4.69-5.65,10.67-10.26,17.94-13.82,6.54-10.8,8.68-12.99,20.18-5.89,4.72.84,9.5-.32,14.06-1.63,14.8-5.7,29.28-9.86,45.53-7.97,1.34-.82,3.63-.76,5,0,2.06-.86,4.99-.76,7,0,3.65-.29,7.31-.62,11-1h1Z"/>
      <path class="cls-7" d="M178.07,0l-2.41,1.05c-2.86.09-5.74-.17-8.59-.05-.87-.28-.86-.62,0-1h11Z"/>
      <path class="cls-1" d="M167.07,0v1c-2.32.1-4.68-.12-7,0-.87-.28-.86-.62,0-1h7Z"/>
      <path class="cls-5" d="M160.07,0v1c-1.66.09-3.34-.08-5,0V0h5Z"/>
      <path class="cls-10" d="M349.03,369v45h-10v-29l-12.51,18c-2.59.64-9.89-15.72-13.49-17v28h-10v-45c2.97.34,6.66-.52,9.48.02,4.44.86,11.21,18.67,14.01,17.98,1.94-.48,9.04-16,11.51-17.49s8.05-.03,10.99-.5Z"/>
      <polygon class="cls-10" points="274.05 369 274.05 378 260.05 378 260.05 414 250.05 414 250.05 378 236.06 378 236.06 369 274.05 369"/>
      <rect class="cls-10" x="282.05" y="369" width="10" height="45"/>
      <path class="cls-4" d="M271.18,451.88c-.86-1.5,1.05-4.55,2.51-4.79,1.38-.23,7.97,6.26,11.35,1.4,1.76-5.77-14.61-3.2-13.98-12.92.55-8.42,14.94-9.65,18.55-4.59.63.89-1.2,3.64-2.21,3.95-1.6.48-10.39-5.1-10.37.58.02,4.76,14.51,1.42,14.08,11.97s-17.84,8.07-19.93,4.4Z"/>
      <path class="cls-4" d="M468.14,451.88c-.86-1.5,1.05-4.55,2.51-4.79,1.38-.23,7.97,6.26,11.35,1.4,1.76-5.77-14.61-3.2-13.98-12.92.55-8.42,14.94-9.65,18.55-4.59.63.89-1.2,3.64-2.21,3.95-1.6.48-10.39-5.1-10.37.58.02,4.76,14.51,1.42,14.08,11.97s-17.84,8.07-19.93,4.4Z"/>
      <path class="cls-9" d="M363.03,428v5h-14v7.01s12-.01,12-.01v5.01c-1.89.31-11.58-.43-12.01-.01-.39.39.29,8.32.01,10.01h-6v-27.01h20Z"/>
      <path class="cls-4" d="M207.07,123.01c11.79-3.71,22.5-.42,29.97,9.52,1.35,1.79,6.97,10.94,1.37,8.65s-10.37-9.69-15.64-12.38c-4.56-2.32-10.21-1.41-13.97-3.03-1.39-.6-2.02-1.16-1.73-2.76Z"/>
      <path class="cls-8" d="M175.08,102c1.32,3.37-4.41,5.41-7.03,4.6-6.26-1.93-6.68-9.5-9.1-13.98-1.18-2.18-8.97-12.46-7.87-13.62,3.11.5,6.91,3.2,8.99,5.5,5.35,5.91,5.99,18.6,15.01,17.5Z"/>
      <rect class="cls-2" x="448.01" y="428" width="6" height="27"/>
      <path class="cls-2" d="M229.05,138c1.36.99.12,4.98-1.42,6.07-5.8,4.11-15.57-3.14-14.56-10.07,3.61.24,5.17,5.3,8.72,5.85,2.34.36,5.91-2.84,7.27-1.85Z"/>
      <path class="cls-6" d="M290.04,198h-17.99c-.24-1.22,2.09-1.72,2.99-2,3.26,2.2,8.57.52,12.58.96,1.36.15,2.1.98,2.41,1.04Z"/>
      <path class="cls-3" d="M217.06,174h-2c.41-1.2.23-2.78,1.99-3,.11.98-.12,2.04,0,3Z"/>
      <path class="cls-10" d="M321.52,234.02c-9.21-16.48-12.63-42.73-12.55-61.53.06-13.89,5.97-33.74,2.63-46.55-1.43-5.49-5.38-9.8-7.33-14.66-2.62-6.51-2.78-13.54-4.94-20.06-3.77-11.34-13.81-18.3-23.27-24.72,3.08-1.81,6.57-2.96,10-3.99,33.82-10.14,47.18.81,65.8,27.18,6.04,8.55,22.73,34.87,21.97,44.53-1.24,15.84-41.25,50.15-50.66,69.41-1.04,2.13-2.92,6.02-2.62,8.38l51.91-60.08c3.79-5.45,6.73-10.95,6.99-17.77.77-19.97-32.78-64.81-49.48-75.55-25.16-16.17-42.59,1.87-67.41,3.4-20.8,1.28-59.06-8.25-69.26,18.72-.56,1.47-2.6,6.73-.23,7.28,17.08-27.38,55.75-24.75,82.26-13.76,22.98,9.53,15.63,20.84,22.96,39.04,2.56,6.35,7.98,11.89,8.67,19.34,1.11,11.99-7.3,24.84-4.89,37.38-8.09-.61-16.58-1.04-24.57.97-1.67.42-2.92-1.01-2.43,2.02,5.93.91,22.71,1.34,26.99,4.51,4.47,3.32,2.65,12.52,3,17.5-9.85-1.38-20.4-1.98-29.99,1l.49,1.22c4.89.1,9.72.36,14.51.78,11.96,2.21,21.85,9.67,19.99,23-10.76-2.53-21.14-3.98-31.98-.98.64,1.76,5.11,2.47,6.74,2.73,7.37,1.18,23.27-.04,25.01,9.99,3.2,18.49-20.9,5.46-26.76,11.28-2.8,2.78,7.27,1.91,8.39,2.1,7.32,1.22,17.35,6.5,15.63,15.38-.28,1.43-2.39,3.51-3.52,3.51h-14.5c-.46,2.31.23,1.6,1.28,2.26,3.27,2.05,9.11,2,11.68,4.28,5.83,5.15-3.87,16.84-5.28,22.65-1.46,5.99-.66,9.11-3.51,15.49-7.85,17.58-25.99,38.8-45.16,43.83-7.08,1.86-30.76,4.68-30.1-7,.35-6.29,13.15-6.18,18.98-9.12,25.2-12.71,14.29-37.49,27.12-50.88,5-5.22,19.12-4.77,18.73-10.02-.31-4.14-11.2-3.78-14.47-5.26-10.89-4.92-10.86-25.44-14.51-35.49-5.16-14.18-16.05-23.91-31.74-18.74-1.91-14.29-3.12-28.72-5.01-43-.3-1.95-1.23-1.66-2,0-2.82,8.22-3.53,19.48-2.01,28-9.35-3.82-16.57-12.23-19-21.99-1.42-.2-1.85,2.72-1.92,3.6-1.25,17.18,19.6,21.28,25.8,35.02,4.63,10.27,3.26,23.33,6.62,34.38,4.58,15.07,16.17,26.79,30.58,32.64-1.46,16.36-5.65,39.03-22.38,46.55-8.24,3.7-20.76,1.84-20.76,14.31,0,5.63,4.24,10.61,9.07,13.01,14.57,7.26,30.68,1.68,43.31-6.7,30.22-20.03,42.76-57.65,48.69-91.81,18.81,11.33,46.12,24.55,64.97,6.49-23.07-5.87-44.11-11.31-56.5-33.48ZM251.38,246.18c.98,4.2,2.01,8.44,1.67,12.82l-4.75-10.74-.23-10.25c2.09,1.36,2.77,5.85,3.31,8.17ZM243.36,272.19c-10.61-6.85-15.9-29.7-16.34-41.64-.25-6.72.39-12.25,8.78-8.78,9.6,3.97,5.25,19.55,6.49,27.5,1.42,9.06,7.65,17.86,15.44,22.56,2.31,1.39,9.92,3.8,10.32,4.19,2.11,2.11-5.77,3.02-6.54,3.02-4.14-.03-14.53-4.51-18.14-6.84ZM359.31,268.22c1.28.76,2.07,1.03,1.71,2.78-13.02.5-29.53-4.58-39.9-12.58-7.56-5.83-7.21-10.31-5.07-19.41,7.06,9.43,17.91,17.53,28.31,23.17,4.69,2.55,11.49,3.99,14.95,6.05Z"/>
      <path class="cls-10" d="M444.01,390.99c8.45-7.31,5.55-20.15-5.5-21.99-7.39-1.23-17.75.91-25.49,0v45h26.49c1.54,0,8.26-3.05,9.53-4.47,5.22-5.85,3.16-16.86-5.03-18.55ZM423.01,377.99c3.89.68,14.41-2.01,15.82,2.71,2.59,8.63-11.13,5.96-15.82,6.3v-9.01ZM438.51,405h-15.5v-10h14.5c4.86,0,6.41,10,1,10Z"/>
      <path class="cls-10" d="M377.78,368.27c-29.69,4.08-25.13,49.87,6.63,46.62,30.79-3.15,26.22-51.14-6.63-46.62ZM383.42,405.93c-18,1.99-20.91-25.86-4.65-28.7,19.03-3.32,22.1,26.76,4.65,28.7Z"/>
      <path class="cls-10" d="M478.76,368.27c-29.69,4.08-25.13,49.87,6.63,46.62,30.79-3.15,26.22-51.14-6.63-46.62ZM484.4,405.93c-18,1.99-20.91-25.86-4.65-28.7,19.03-3.32,22.1,26.76,4.65,28.7Z"/>
      <path class="cls-9" d="M433.56,441.06c1.6-4.97-.6-12.1-6.05-13.06-4.47-.79-10.78.57-15.5,0v27h6s0-8,0-8c8.64-1.71,6.37,10.62,15.99,8,.46-2.7-5.24-6.61-4.93-8.36.19-1.09,3.72-3.21,4.48-5.58ZM418.01,442v-9.01c13.69-2.41,13.81,11.38,0,9.01Z"/>
      <path class="cls-9" d="M318.88,428.17c-.75-.45-4.92-.45-5.68,0-1.25.75-8.89,23.72-11.16,26.82,7.29,2.91,7.28-5.71,8.65-6.04,1.08-.26,10.74-.13,11.21.18,1.28.83.19,8.37,8.13,5.86-2.27-3.09-9.91-26.07-11.16-26.82ZM319.03,443.99h-5.99s2.01-7.99,2.01-7.99c2.01.16,4.4,7.62,3.98,7.99Z"/>
      <path class="cls-9" d="M387.86,428.17c-.75-.45-4.92-.45-5.68,0-1.25.75-8.89,23.72-11.16,26.82,7.29,2.91,7.28-5.71,8.65-6.04,1.08-.26,10.74-.13,11.21.18,1.28.83.19,8.37,8.13,5.86-2.27-3.09-9.91-26.07-11.16-26.82ZM388.02,443.99h-5.99s2.01-7.99,2.01-7.99c2.01.16,4.4,7.62,3.98,7.99Z"/>
    </g>
  </g>
</svg>