<svg xmlns="http://www.w3.org/2000/svg" version="1.1" xmlns:xlink="http://www.w3.org/1999/xlink" xmlns:svgjs="http://svgjs.com/svgjs" width="388.83" height="338.29"><svg id="SvgjsSvg1001" xmlns="http://www.w3.org/2000/svg" viewBox="0 0 388.83 338.29">
  <defs>
    <style>
      .cls-1 {
        fill: #743521;
      }

      .cls-2 {
        fill: #74361e;
      }

      .cls-3 {
        fill: #c2ae72;
      }

      .cls-4 {
        fill: #722f16;
      }

      .cls-5 {
        fill: #c7c4aa;
      }

      .cls-6 {
        fill: #896354;
      }

      .cls-7 {
        fill: #732e13;
      }

      .cls-8 {
        fill: #8a6d54;
      }

      .cls-9 {
        fill: #743b2f;
      }

      .cls-10 {
        fill: #742e13;
      }
    </style>
  </defs>
  <g id="SvgjsG1000" data-name="Layer_1">
    <g>
      <path class="cls-10" d="M257.72,214.36c2.14,2.32,2.7,6.84,1.07,9.77-2.19,3.94-4.97,7.22-9.8,8.02-1.92.32-3.59,1.32-4.88,2.75-2.75,3.01-5.86,5.59-9.16,7.96-1.37.99-1.04,2.31-.33,3.47,2.6,4.26,2.34,8.6.96,13.2-.63,2.08-1.72,3.28-3.61,3.97-1.59.58-3.24,1.02-4.78,1.69-1.41.62-1.88,1.41-1.84,3.38.08,4.07-1.22,8.05-4.58,10.88-.92.78-1.91,1.46-2.53,2.52-3.46,5.91-8.86,9.96-13.85,14.39-3.16,2.81-7.69,3.46-11.19,3.32-5.26-.2-10.08.91-14.98,1.98-3.1.67-4.91-.52-6.56-2.72-.66-.88-1.3-1.77-1.98-2.63-.67-.84-1.21-1.42.19-2.29,1.22-.76.76-2.2.14-3.24-3.06-5.1-4.63-11.08-9.28-15.23-1.92-1.72-2.68-4.19-3.14-6.67-.77-4.11-2.17-8.09-2.37-12.31-.12-2.35-1.03-4.4-2.29-6.39-2.58-4.04-4.95-8.2-7.52-12.25-.9-1.42-.82-2.17.76-2.96,7.33-3.64,14.58-7.43,22.86-8.55,1.97-.27,3.47-1.46,4.73-2.93,3.82-4.42,8.83-7.08,14-9.5.86-.4,1.68-.7,2.78-.06,4.82,2.79,12.83,1.63,16.93-2.58,2.31-2.37,5.98-3.47,6.87-7.22.06-.24.61-.45.97-.53,3.3-.77,6.61-1.49,9.91-2.26,1.55-.36,2.35.22,2.76,1.77,3.33,12.5,15.15,15.92,25.64,15.49,2.51-.1,3.33-2.21,4.11-4.23Z"></path>
      <path class="cls-10" d="M126.03,143.1c-1.5-.95-2.95.02-4.56.44-1.97.52-3.4-.52-4.17-2.49-2.2-5.61-2.97-6.01-8.81-5.82-5.5.18-10.53,1.95-15.41,4.26-3.69,1.74-7.34,2.44-11.45,1.21-4.64-1.38-9.35-.68-13.7,1.4-3.05,1.45-5.85,1.25-8.47-.62-5.43-3.88-10.15-8.68-15.93-12.12-1.24-.74-1.99-2.17-1.97-3.55.03-2.88-1.27-5.11-3.28-6.78-2.98-2.48-4.17-6.66-8.21-8.16-1.6-.6-1.58-2.45-1.03-3.96.82-2.23.8-4.3-.78-6.17-.56-.67-.55-.94.18-1.61,4.66-4.29,5.46-10.11,5.87-15.97.1-1.48-.17-2.92.65-4.31.8-1.35.6-2.68-.47-3.86-1.86-2.05-.83-3.87.49-5.62,3.83-5.07,7.55-10.3,11.73-15.01,3.06-3.45,5.98-7.65,10.93-9.12,2.71-.8,5.06-2.3,7.21-4.14,1.88-1.61,3.34-3.38,3.41-6.02.03-.99.37-1.92.9-2.81,2.35-4.01,2.63-4.03,5.45-.37.8,1.04,1.36,1.6-.23,2.67-2.22,1.5-2.7,3.84-1.45,6.34,1.12,2.24,2.47,4.34,4.21,6.14.95.98,1.2,1.49-.21,2.37-2.4,1.49-2.25,3.83-1.35,6.11.43,1.09,1.14,2.13,1.94,3,2.01,2.2,3.94,3.84,2.49,7.7-1.25,3.35,1.84,6.26,4.33,8.62.93.89,1.47,1.31.58,2.76-1.97,3.23-.15,5.96,1.92,8.36,1.02,1.19,2.4,2.09,3.69,3.01.71.5,1.29.81.71,1.82-2.02,3.48-.58,6.29,1.83,8.88.61.66,1.15,1.45,1.9,1.89,2.96,1.72,5.57,3.04,5.18,7.64-.28,3.36,3.45,5.3,6.44,6.8,1.31.66,2.12,1.07,1.73,3.03-.79,3.96,2.13,7.56,7.25,9.28,1.91.64,2.82,1.25,2.88,3.56.12,3.84,3.59,6.64,8.03,7.01,1.41.12,2.74.17,2.52,2-.18,1.49-1.31,2.12-2.97,2.19Z"></path>
      <path class="cls-3" d="M285.12,252.8c25.42-19.48,48.25-41.55,66.72-67.82,9.89-14.06,18.6-28.86,22.81-45.81,2.62-10.56,3.65-21.15,1.12-31.93-3.03-12.94-10.55-22.39-21.89-28.97-5.9-3.42-12.3-5.63-18.87-7.41-1.87-.51-2.73-.38-2.07,1.81.17.57.12,1.21.32,1.76.73,2.04-.1,2.25-1.85,1.79-5.1-1.36-10.22-2.64-15.33-3.95-8.1-2.08-16.2-4.15-24.29-6.25-1.06-.27-2.07-.69-3.56-1.19,4.96-2.19,9.55-4.23,14.14-6.25,7.77-3.4,15.56-6.75,23.31-10.21,2.13-.95,2.95-.69,3.25,1.84.73,6.18.86,6.12,7.38,7.73,13.78,3.41,26.32,9.2,36.47,19.45,8.98,9.07,13.78,20.18,15.45,32.66,2.04,15.25-1.33,29.76-6.91,43.82-6.77,17.04-17.02,32.02-28.36,46.27-9.9,12.44-20.94,23.84-32.68,34.54-13.22,12.04-27.27,23.04-41.93,33.3-19.27,13.48-39.67,24.98-60.79,35.23-18.32,8.9-37.24,16.33-56.73,22.31-10.39,3.19-20.87,6.07-31.54,8.06-13.03,2.43-26.18,4.04-39.47,4.59-14.56.6-28.89-.62-42.94-4.39-13.47-3.61-25.49-9.93-34.7-20.65-7.59-8.83-11.5-19.27-12.07-30.91-.87-17.68,4.61-33.76,12.55-49.21.27-.19.52-.16.75.06-3.56,8.02-6.85,16.14-8.97,24.69-2.99,11.99-3.96,24.02-.17,36.02,5.09,16.09,16.41,26.39,31.52,32.77,11.11,4.69,22.86,6.64,34.91,7.37,22.24,1.35,43.94-1.9,65.43-7.11,30.12-7.31,58.55-19.01,85.92-33.43,15.39-8.1,30.23-17.09,44.63-26.82.86-.58,2.04-.94,2.2-2.25,4.85-3.76,9.76-7.42,14.66-11.11.47-.35.97-.72,1.62-.38Z"></path>
      <path class="cls-10" d="M110.25,13.71c4.94-1.6,9.62-2.22,14.19-1.84,2.73.22,5.04-.96,7.62-.83,2.86.14,5.76.74,8.45-.99.8-.52,1.91-.17,2.35.71.56,1.12,1.65.84,2.67,1.25-1.36,1.49-2.15,2.91-.51,4.72.87.96.19,2.05-.67,2.89-1.28,1.25-2.54,2.52-3.91,3.87,3.96,1.99,7.48,4.44,12.13,4.73,3.02.19,6.32,1.06,7.74,4.63.48,1.19,1.85,1.49,3.05,1.59,2.96.24,5.65,1.21,8.07,2.88,1.39.96,2.66.54,3.92-.14,1.2-.65,1.68-1.78,1.32-3.04-.74-2.6-.09-4.53,2.46-5.59,2.7-1.13,5.6-1.51,7.89.53,1.4,1.25,2.92,1.39,4.44,2.01,4.7,1.91,9.75,2.27,14.54,3.7,2.5.75,4.82.81,7.19-.38,3.11-1.56,6.22-1.96,9.4-.03,1.12.68,2.57.82,3.76.19,1.78-.94,2.45,0,3.12,1.39,1.94,4,2.99,7.99.11,12.24-2.05-2.62-3.99-5.12-5.94-7.62-.22.13-.44.26-.65.4,3.26,5.83,7.35,11.21,10.34,17.77-6.2-.94-11.98-.39-17.67,1.12-7.8,2.06-14.53,6.13-20.41,11.47-2.61,2.37-3.75,6.07-6.18,8.74-.72.8-1.32,1.71-2.11,2.75-23.35-25.44-49.91-47.05-76.7-69.1Z"></path>
      <path class="cls-7" d="M241.97,150.53c3.22-5.51,5.98-11.18,7.88-17.26.74-2.38,1.37-4.78,1.67-7.26.18-1.49.47-2.85,1.58-4.07,1.76-1.94.99-4.39.65-6.6-.28-1.8-.58-3.41.35-5.18.79-1.51-.17-3.15-.69-4.6-1.1-3.09-1.6-6.06.52-9.13,1.62,2.04,3.78,3.46,6.23,4.42,1.35.53,2.38,1.37,3.38,2.38,1.68,1.7,3.23,3.52,5.2,4.94,3,2.15,2.99,2.78.28,5.35,1.92.13,3.1,1.25,4.03,2.77,1.56,2.56,3.43,2.83,6.31,1.69,3.33-1.32,7.02-1.73,10.56-2.52,2.72-.6,5.45-1.15,8.16-1.78,1.28-.3,2.66-1.72,3.8-.43,1.13,1.28,1.3,3.41.82,4.85-4.25,12.58-9.42,24.68-19.69,33.77-1.34,1.18-2.91,2.08-4.31,3.21-.81.65-1.39.86-2.29.08-.82-.71-1.38-1.24-.88-2.45,2.94-7.01,2.18-13.77-1.23-20.46-2.41-4.73-5.9-5.39-9.61-1.52-2.98,3.11-5.67,6.33-6.93,10.66-.93,3.2-1.33,6.19-.03,9.32.32.76,1,1.81-.27,2.29-1.53.58-1.16-1.01-1.47-1.64-1.52-3.07-3.57-4.11-7.13-3.24-2.32.56-4.56,1.41-6.91,2.43Z"></path>
      <path class="cls-10" d="M285.12,252.8c-4.62,3.52-9.25,7.04-13.87,10.56-.71.54-1.42,1.09-2.4.93-2.52-3.82-2.76-12.74.04-16.05,3.26-3.85,3.83-7.88,2.93-12.71-.95-5.06,3.89-9.48,8.99-8.76.35.05.82.57,1.02.11,1.07-2.51,3.49-3.35,5.53-4.67.28-.18.55-.67.51-.98-.32-2.27.87-3.29,2.77-4.29,1.83-.97,1.68-3.46,2.77-5.47,4.75,4.52,3.38,10.13,4,15.23-1.59.56-1.48-1.3-2.63-.97.29,5.53-2.91,10.01-4.68,14.92-1.48,4.11-3.3,8.1-4.97,12.15Z"></path>
      <path class="cls-4" d="M133.87,146.3c1.48-.05,2.84.55,4.22.15.75-.22,1.03.16,1.28.82.84,2.2,2.54,3.48,5.2,4.17-2.3,2.94-4.36,5.67-6.53,8.31-.77.94-1.9,1.87-1.7,3.03.54,3.11-1.58,4.67-3.37,6.69-1.71-2.28-2.8-4.24-1.12-7.22,2.36-4.18,1-9.36,2.97-13.78.21-.46-.58-1.36-.95-2.17Z"></path>
      <path class="cls-2" d="M176.36,198.43c-9.13-.42-17.5,3.5-26.5,4.15,3.34-1.48,5.8-4.89,10.2-4.04,1.88.36,3.82-.45,5.42-1.36,3.83-2.19,7.34-1.75,10.88,1.24Z"></path>
      <path class="cls-1" d="M251.79,170.28c.89,5.57.9,5.58-3.42,7.17-3.1,1.13-6.13,2.5-9.61,2.73,4.79-2.39,9.33-5.05,13.03-9.9Z"></path>
      <path class="cls-5" d="M13.38,233.05c-.25-.02-.5-.04-.75-.06,3-7.32,7.74-13.59,12.24-20-3.92,6.64-7.67,13.37-11.49,20.06Z"></path>
      <path class="cls-9" d="M226.4,168.21c1.76-1.64,3.03-2.84,4.3-4.03.95,3.86.78,4.05-4.3,4.03Z"></path>
      <path class="cls-3" d="M275.8,166.36c1-4.19.32-7.03-2.27-8.62.16,9.7-3.74,15.86-11.13,17.31.17-.53.23-1.03.46-1.42,3.8-6.49,6.03-13.67,9.16-20.45,3.06-6.63,3.16-13.04-.62-19.41-1.12-1.88-2.27-2.08-3.72-.41-1.11,1.28-2.38,2.45-3.35,3.84-2.66,3.82-4.15,7.94-2.66,12.66,1.02,3.23,2.41,6.33,3.17,9.65.46,2,.07,3.68-1.07,5.42-.6-1.98-1.03-3.83-1.74-5.56-.51-1.25-1.49-3.17-2.74-2.65-1.56.65-.31,2.41.09,3.65.21.66.6,1.27.82,1.93,1.1,3.41,1.15,6.72-.96,10.25-.49-.94-.81-1.53-1.11-2.13-.44-.89-.91-2.12-2.03-1.73-.91.32-.47,1.59-.41,2.44.5,6.82.36,7.23-6.01,9.65-4.09,1.56-8.29,2.84-12.48,4.11-.85.26-2.33.95-2.52-.95-.44-4.31,1.17-7.24,5.29-8.96,5.04-2.11,8.62-5.67,11.13-10.4,1.67-3.14,2.59-6.48,2.14-10.08-.27-2.19-1.01-3.57-3.71-2.56-2.44.92-4.92,1.73-7.07,3.2-3.99,2.72-7.06,6.08-7.71,11.2-.28,2.2,1.19,4.25.35,6.4-8.02-3.01-15.13,2.39-23.6,2.73,1.57-1.22,2.4-1.91,3.28-2.53,6.87-4.86,13.18-10.35,18.54-16.85,8.2-9.95,14.3-20.88,15.27-34.1.08-1.04.57-2.96.81-2.95,2.82.1,1.31-1.93,1.25-2.76-.16-1.96-.77-3.89-1.2-5.84-.1-.46-.44-1.27.06-1.3,2.04-.11,1.13-1.27.95-2.23-.7-3.72-3.59-7.2-.2-11.3,1.34-1.62.92-4.61,2.16-6.74.18-.32-.02-.98-.23-1.38-1.1-2.1-.03-3.11,1.78-3.9,3.48-1.51,6.95-3.03,10.37-4.65,1.34-.64,2.99-1,3.69-2.72-2.38-.74-4.64-.94-6.91-1.21-2.41-.28-4.77-.42-7.14.06-1.49.3-2.41-.46-3.27-1.58-7.87-10.28-20.92-13.27-32.83-10.22-11.14,2.85-19.83,8.95-25.65,18.97-.79,1.36-1.71,2.56-2,4.26-.4,2.31-1.97,2.71-3.75,1.18-.91-.78-1.7-1.69-2.52-2.56-12.86-13.69-26.25-26.84-40.66-38.91-18.06-15.12-36.25-30.07-54.39-45.09-.59-.49-1.18-1.44-1.98-1.04-.96.49-.5,1.66-.37,2.45.77,4.79,2.71,9.16,5.15,13.31.53.91,1.1,1.76,1.23,3.55-5.01-3.62-9.52-6.88-14.03-10.14-.7-.5-1.36-1.58-2.28-.89-.77.58-.36,1.67-.15,2.54.78,3.23,2.07,6.23,3.88,9.03.84,1.3,2.04,2.42,2.39,4.08-1.82.67-3.42-.22-5.07-.31-1.02-.05-2.3-.65-2.97.63-.53,1.02.11,1.93.7,2.75.81,1.13,1.66,2.24,2.5,3.36,1.95,2.59,4.28,4.85,7.51,7.49-2.89-.21-4.81-.42-6.73-.47-2.49-.07-3.08.89-1.87,3.08,1.95,3.56,4.64,6.47,7.98,8.79.92.64,2.06,1.08,2.76,2.53-1.32,0-2.3-.07-3.27.01-1.83.15-4.38-.77-5.22,1.18-.87,2,1.39,3.46,2.61,4.97,1.91,2.37,4.75,3.69,7.21,5.91-1.11.38-1.85.66-2.6.88-3.08.92-3.64,2.28-1.8,4.89,1.7,2.42,4.04,4.11,6.67,5.44,1.06.54,2.47.79,2.86,2.29-2.26.66-5.4.12-5.92,2.83-.48,2.54,2.04,4.08,3.95,5.52.63.48,1.31.9,1.99,1.31,1.6.97,3.51,1.42,4.99,2.91-.67.42-1.23.82-1.84,1.14-3.7,1.99-3.96,3.55-1.18,6.67,2.25,2.52,5.32,3.4,8.4,4.27.84.24,2.02.1,2.3,1.09.27.93-.89,1.18-1.43,1.71-2.58,2.53-2.53,3.99.24,6.41,2.17,1.9,4.89,2.61,7.55,3.38,1.44.42,2.04.84.66,2.05-3.07,2.69-2.18,6.83,2.74,8.29,2.27.67,4.64,1.03,6.97,1.54.15.85-.43,1.49-.71,2.22-1.34,3.57-.18,5.7,3.53,6.66,1.49.38,2.95.52,4.43.09,2.08-.59,3.09-.33,2.38,2.24-.97,3.5,1.3,5.84,4.92,5.18,1.17-.21,2.28-.73,3.44-1.01,1.3-.31,1.99-.23,1.7,1.61-.58,3.66,1.03,4.97,4.66,4.14,1.69-.39,3.24-1.37,5.44-1.35-3.64,6.25-8.76,10.98-12.69,16.51,1.1.92,2.07-.47,2.92.84-2.23,2.48-4.51,4.97-6.72,7.51-.4.45-1.59,1.42-.3,1.71,3.39.78.44,1.88.07,2.26-9.8,10.11-20.35,19.43-30.46,29.22-7.67,7.43-15.74,14.49-22.14,23.13-2.38,3.21-4.59,6.54-5.54,10.52-.42,1.77-.11,3.36,1.21,4.7,1.37,1.39,2.94,1,4.47.43,2.07-.77,3.95-1.89,5.7-3.26.61-.47,1.2-1.39,2-1.1,1.07.39.61,1.54.69,2.39.27,3.01,1.95,3.98,4.7,2.63,2-.98,3.66-2.41,5.1-4.1.44-.52.85-1.25,1.66-1.02.74.21.46.99.59,1.53.87,3.43,2.65,4.21,5.71,2.43,2.37-1.38,4.22-3.39,5.86-5.52,7.9-10.29,15.64-20.69,23.59-30.94,2.81-3.62,5.2-7.63,8.93-10.72.26,1.43-1.04,2.36-.47,3.76,3.37-1.74,6.66-3.42,9.93-5.12.62-.32,1.48-1.04,1.9-.61,2.66,2.73,4.82.07,7.02-.66,2.19-.73,4.23-1.03,6.38-.17,2.59,1.04,5.19,2.06,7.73,3.2,1.85.83,3.88,1.4,5.7,3.03-3.42,1.15-6.44,2.55-9.6,3.11-3.16.56-4.14,3.75-6.97,4.66-6.91,2.21-13.73,4.72-20.58,7.13-5.81,2.04-11.4,4.55-16.52,8.04,13.36-5.67,27.06-10.26,41.13-13.79-3.19,2.71-7.24,3.4-10.94,4.88-.62.25-1.42.15-1.74.86-.11.25.09.93.31,1.01,2.04.8,1.39,2.81,2.37,4.33-2.23-.42-3.17-1.97-4.22-3.23-1.31-1.58-2.73-1.87-4.5-1.15-6.74,2.74-13.62,5.19-19.99,8.78-4.55,2.56-9.07,5.2-12.57,9.26,9.2-5.34,18.11-11.24,28.63-13.9-16.96,7.15-31.43,17.53-42.27,32.72-.18-.21-.36-.42-.54-.63,1.34-1.98,2.68-3.96,4.02-5.95-3.73,2.75-6.82,6.01-9.62,9.53-2.71,3.41-5.27,6.92-7.9,10.39,2.37-6.06,6.82-10.82,10.22-16.87-2.07.81-2.95,2.06-3.86,3.16-4.54,5.45-8.88,11.05-12.36,17.25-2.3,4.09-4.46,8.25-5.66,12.84-.49,1.88-.29,3.28,1.91,3.91,2.59.73,5.09,1.76,7.68,2.49,5.18,1.45,5.19,1.4,6.96-3.44.24-.66.5-1.3.76-1.95,7.32-18.57,18.47-34.23,35.35-45.28,8.34-5.46,17.07-10.32,25.58-15.53,11.32-6.92,22.59-13.92,33.88-20.89,0,0,0,0,0,0h0c-.33-2.5-3.11-2.1-4.26-3.62h0,0c-4.85-2.4-9.91-4.41-14.38-7.59,5.67,1.7,11.23,3.66,16.28,6.86,3.02,3.34,3.83,3.53,6.18,1.39-.15-.13-.27-.29-.44-.39-.82-.45-2.1.03-2.52-1.2-.06-.19.13-.64.3-.71,1.16-.44,2.12.17,3.03.77.57.38.99,1,1.77.96h0c.11-.16.2-.42.34-.45.15-.04.26-.09.34-.15.04-.05.08-.09.12-.14.4-.69-1.31-2.21.61-2.38,1.16-.1,2.23.8,3.39.16.49-.75,1.67-.68,2.04-1.78-2.99-.67-5.73-1.29-8.95-.36-5.17,1.48-9.55-1.36-14.24-4.15,4.66-1.56,8.94-3,13.23-4.41.34-.11.91-.09,1.14.12,3.13,2.91,6.21.82,9.2-.18,3.49-1.16,6.86-2.68,10.33-3.89,1.21-.42,2.84-1.79,3.75-.51.83,1.18-.87,2.44-1.56,3.6-.61,1.02-1.4,1.94-2.09,2.91-1.35,1.88.71.68,1.1.87-1.48,2.9-4.89,1.28-6.6,3.3-.42.5-2.21.68-.12,1.49.6.24-.21.78-.54,1.01-1.79,1.25-3.6,2.45-5.41,3.67,0,0,0,0,0,0-1.21,1.52.67,3.23-.33,4.8-1.66-1.36-1.64-3.04-.95-4.86v-.02s0,0,0,0h0c-.6-.33-1.23-.92-1.89-.39-.7.56.13.97.33,1.46.76,1.9-1.4,1.66-1.97,2.6h0c.11.57.91,1.76-.2,1.55-3.82-.72-3.29,1.44-2.84,3.74.09.47.01.97.01,1.54-1.85-.49-1.37-2.43-2.45-3.26h0c-3.08,2.24-6.16,4.49-9.93,7.24,2.85-.94,4.89-1.61,7.3-2.41-.79,1.52-3.15.97-2.52,2.69.53,1.42,2.07,2.08,3.71,2.04.2,0,.4-.03.6-.05,5.49-.59,9.14-4.44,13.22-7.49.41-.31.69-1.05.71-1.6.07-1.92,1.34-2.45,2.9-2.85,4.25-1.08,8.52-1.99,12.84-2.75,2.87-.5,4.26.13,4.86,3.06,2.44,12.08,12.41,14,20.52,14.58,1.52.11,2.17-.58,2.08-2.15-.45-8.2-7.67-16.79-15.62-18.94-2.72-.73-5.64-.51-8.61-1.92,1.77-.6,3.22-.99,4.58-1.58,7.75-3.39,15.11-3.13,22.55,1.33,5.39,3.23,11.25,4.57,17.15.42,2.2-1.54,2.49-2.84.72-4.74-4.16-4.47-9.32-5.87-15.23-4.99-2,.3-3.96.92-6.08.57,3.67-1.78,7.48-3.19,11.11-4.96,5.33-2.58,9.96-5.92,11.45-12.2ZM268.05,154.02c-1.54-1.91-1.48-2.29.67-3.97.39,1.65-.09,2.8-.67,3.97ZM269.53,144.06c.43-.18.6.48.42.83-.26.52-.6,1.03-1.02,1.43-.53.5-1.13.3-1.57-.2-.93-1.07-1.19-2.39-1.57-3.85,1.66.24,1.86,2.58,3.74,1.79ZM247.41,163.1c-.94,1.33-2.32,1.83-4.39,2.29,1.19-2.09,2.82-2.11,4.39-2.29ZM134.59,188.87c-9.69,11.13-19.65,21.99-30.64,31.9,9.03-11.77,19.96-21.71,30.64-31.9ZM90.42,229.55c12.05-14.8,26.17-27.6,40.22-40.46-12.65,14.21-25.31,28.42-40.22,40.46ZM114.46,227.28c5.36-7.82,11.15-15.3,17.94-21.96-5.19,7.96-11.57,14.96-17.94,21.96ZM100.21,231.57c12.29-15.2,26.32-28.78,39.96-42.71-12.76,14.77-25.73,29.33-39.96,42.71ZM177.6,190c-.02.16-.07.09,0,0h0ZM253.97,78.45c-3.43,1.89-7.21,2.6-11.01,3.25,3.28-2.38,6.88-3.72,11.01-3.25ZM214.46,71.55c-1.16-1.15-2.17.54-3.22,0,4.75-5.66,22.29-7.45,27.95-.8-1.5-.04-2.64-1.18-4.14-.61.68,1.32,2.58,1.5,2.96,3.63-10.23-4.51-19.77-2.44-29.24,1.43,1.57-1.8,3.7-2.57,5.69-3.66ZM223.64,85.32c2.38-.14,3.89-1.71,5.52-3.83,0,3.58-2.68,5.94-6,5.7-3.31-.24-4.91-2.13-4.54-5.57,1.98.89,2.45,3.85,5.02,3.7ZM219.52,78.51c2.26-1.79,4.41-2.18,6.98.07-2.69.68-4.87-.79-6.98-.07ZM109,25c3.3,1.76,5.71,4.35,8.42,6.5,23.23,18.45,45.01,38.52,66.07,59.39,3.11,3.08,6.26,6.16,9.87,8.69,5.55,3.9,11.62,5.56,18.39,3.99.14,1.9-3.06.24-2.8,2.92.12,1.19-2.78,1.26-4.35,1.76-1.77.57.82.93.11,1.62-1.37.03-2.6-.63-3.91-1.05-.53-.17-1.81-2.31-1.86.38-1.4-.08-2.26-1.12-3.26-1.87-12.25-9.26-22.34-20.77-32.85-31.82-15.32-16.12-31.92-30.67-50.76-42.59-3.8-2.4-7.6-4.8-10.62-8.21-1.12-1.26-2.15-2.53-2.65-4.66,4.05,2.66,7.36,5.63,11.34,7.73.36-1.31-.97-1.56-1.13-2.78ZM175.51,133.78c.6.47.06.86-.15,1.21-2.02,3.34-5.17,4.94-9.08,5.55,3.05-4.08,6.11-8.15,9.48-12.66-.02,1.92-.5,3.09-1,4.27-.33.8-.32.8.74,1.63ZM171.54,109.44c4.3-1.51,8.52-3.23,13.06-3.82.57-.07,1.21-.48,1.42.38.06.26-.25.78-.53.92-4.4,2.14-9.07,2.84-13.94,2.52ZM144.21,67.45c-3.45.96-6.45-.29-8.5-3.45,2.94,1.19,5.52,2.24,8.5,3.45ZM132.65,54.74c2.89,1.46,5.03,2.75,7.33,4.94-3.41-.5-5.36-2.08-7.33-4.94ZM146.51,74.25c.28.03.76.52.74.76-.04.49-.49.86-1.02.9-2.52.2-4.54-.69-6.24-2.92,2.47-.19,4.39,1.07,6.51,1.26ZM151.23,81.39c.91.09.9.8.84,1.56-.09,1.01-.83.76-1.29.64-1.96-.51-4.14-.51-5.82-2.55,2.31-.73,4.28.16,6.27.36ZM150.78,87.89c5.07,0,10.14,0,15.2,0,.8,0,1.6-.02,2.39.1.92.14,1.95.63,1.88,1.59-.08,1.1-1.26.68-1.96.67-1.39-.02-2.77-.29-4.16-.32-2.51-.05-4.94-.93-7.58.18-1.87.79-4.08.06-5.83-1.25.02-.32.04-.65.05-.97ZM153.35,72.67c2.23.78,4.34,1.7,6.48,3.72-3.34-.05-5.64-.66-6.48-3.72ZM165.27,83.91c-3.04-1.13-5.89-.13-7.69-2.61,2.82-.96,4.9-.36,7.69,2.61ZM175.93,95.6c-6.24.39-12.46,2.48-18.7.26,6.23-.46,12.44-2.24,18.7-.26ZM180.32,101.25c-3.24,1.9-12.5,2.87-17.01,1.92,3.09-1.98,14.16-3.23,17.01-1.92ZM191.89,110.01c-4.02,3.75-8.28,4.6-12.64,5.16,3.63-2.38,7.52-4.1,12.64-5.16ZM195.91,114.49c-1.77,2.75-4.64,3.61-7.5,4.47,1.97-2.41,4.76-3.39,7.5-4.47ZM88.72,28.4c11.3,4.96,22.24,10.26,32.67,16.53.51.31,1,.66,1.52.95,1.37.76-1.01,1.9.29,2.65-.54.6-1.07.16-1.57-.05-11.18-4.63-22.12-9.68-31.09-18.11-.65-.61-1.22-1.31-1.83-1.97ZM90.53,44.33c11.06,3.07,22.06,6.3,32.27,11.52-.24.97-4.62-.35,1,2.68-13.12-3.25-23.79-7.32-33.28-14.21ZM91.73,57.13c10.45,1.51,20.77,3.48,30.76,6.96,1.4.49.44,2.31,1.93,2.67-11.66-.89-22.47-4.28-32.69-9.63ZM94.69,69.41c10.8.25,21.44,1.73,32.1,3.04.63.08,1.63-.04,1.9.97-1.76.03.84,2.52-1.56,2.5-11.25-.08-22.06-2.17-32.44-6.52ZM99.64,82.28c11.2-1.32,22.42-1.24,33.67-.36-.06.77-.61.87-1.04,1.03-.45.17-.94.23-2.1.49,1.52.18,2.35.27,3.18.37l-.06.83c-11.33,1.81-22.52.66-33.65-2.37ZM105.17,94.14c11.18-1.33,22.29-3.58,33.65-4.3-.17,1.24-1.45,1.09-1.99,1.99.62.14,1.21.27,1.84.41-7.5,4.39-28.02,4.53-33.5,1.9ZM112.16,106.18c10.51-2.87,21.03-5.75,31.81-8.69-3.33,4.31-7.27,6.8-12.36,7.97-6.45,1.48-12.86,1.95-19.45.72ZM121.1,117.87c9.48-4.44,18.97-8.87,28.99-13.56-2.2,2.99-5.08,4.44-7.51,6.36.49.89,1.22-.33,1.71.59-6.82,5.08-14.55,7.15-23.19,6.61ZM130.35,128.47c7.53-6.49,16.69-10.63,24.45-16.9-.89,2.78-3.19,4.42-5.13,6.34-.54.53-1.54.72.02,1.37.71.29-.26.92-.66,1.24-5.52,4.25-11.65,7.08-18.68,7.95ZM141.09,136.32c6.54-7.03,14.4-12.63,20.68-19.83-.48,2.22-1.73,3.88-2.78,5.68-1.01,1.71-3.94,2.54-2.73,5.45.1.25-.86,1-1.39,1.46-4.01,3.47-8.41,6.24-13.78,7.25ZM153.26,140.28c5.31-5.67,10.37-11.48,14.98-17.72-.11,2.22-1.26,3.97-2.14,5.85-.8,1.7-3.2,2.82-2,5.39.15.33-1,1.39-1.67,1.97-2.62,2.26-5.38,4.29-9.18,4.52ZM203.93,159.77c1.74-3.2,4.56-5.62,5.88-9.16-10.53,10.56-21.44,20.55-36.54,24.24,1.48-.79,2.94-1.61,4.44-2.35,1.52-.75,3.12-1.36,4.61-2.16,7.79-4.19,14.93-9.27,20.62-16.09,6.77-8.11,13.76-16.06,19.84-24.72,3.58-5.09,6-10.75,6.22-17.2-5.29,15.11-14.42,27.63-25.83,38.55-11.57,11.08-25.28,17.76-41.36,19.26,11.14-4.64,22.73-8.39,32.27-16.24-6.65,2.88-13.03,6.51-20.57,6.44,10.59-5.25,21.53-9.9,30.4-18.11-9.83,5.23-18.92,12.36-31,11.46,19.71-6.4,35.63-17.54,46-35.78-8.25,8.87-14.64,19.82-27.01,24.28,10.11-8.71,20.79-16.9,25.84-29.97-3.58,4.54-7,9.22-10.76,13.6-6.66,7.75-14.22,14.3-24.64,16.49-.57.12-1.15.14-1.84,0,13.78-6.47,25.87-14.81,32.96-28.86-4.79,4.47-8.39,10.38-15.17,12.48,10.44-8.23,16.53-20.08,25.08-29.87.35-.4.63-1.04.26-1.85-3.38,2.21-7.22,1.95-11,2.02-.61.01-2.66-1.49-3.03-2.38-.28-.67-.57-.2-.84-.15-.49.09-.97.24-1.45.37-.46.12-.93.23-1.55.39,2.16-3.21,5.18-4.91,8.19-4.11,5.9,1.57,10.97-.34,15.9-3.23.69-.4,1.34-.86,1.99-1.32,2.47-1.72,4.84-4.41,7.77-.47-.26.98-1.77.97-2.29,2.3.83.14,1.62.27,2.52.42-.63,2.53-3.03,3.97-3.91,6.87,1.51-1,2.66-1.77,3.82-2.54.11.11.23.21.34.32-1.1,1.68-2.2,3.36-3.82,5.83,1.83-1.21,2.92-1.93,4.39-2.9-.76,2.94-2.77,5-3,8.28,1.18-1.45,1.07-3.26,2.76-3.62.61.79-.51,3.05,1.89,2.27.85,2.61,2.88,4.78,2.95,7.73-1.27-.21-1.35-1.66-2.62-2.3.33,3.91,2.4,7.34,1.49,11.65-.79-2.34-1.44-4.24-2.08-6.14-.15,3.68.18,7.28-.3,11.61-1.64-3.25-.59-6.54-2.45-9.57-.68,3.88.25,7.49-1.35,10.75-.46-3.09-.02-6.23-1.52-9.33-1.5,12.45-6.35,23.39-14.53,32.84,1.15-3.42,3.6-6.3,4.59-10.74-5.2,6.35-8.78,12.98-15.06,17.36,1.13-2.01,2.25-4.01,3.38-6.02-3.72,3.08-6.59,6.99-10.85,9.38ZM242.58,201.3c-2.74-.08-4.51-.37-5.98-2.23,2.37-.41,3.92.54,5.98,2.23ZM225.27,175.82q2.84.23,2.54,3.3c-1.03-1.33-1.74-2.26-2.54-3.3ZM227.75,187.07c1.5-2.6,3.23-5.04,3.4-8.35,1.93,3.11.74,6.04-3.4,8.35ZM232.76,176.56c-1.2.29-2.02-.18-2.72-1.51,1.42-.34,2.47-.55,3.14.63.23.39.02.77-.42.88Z"></path>
      <path class="cls-6" d="M214.91,184.9c-1.95,3.72-5.04,2.75-7.26,3.87-.11-.24-.21-.49-.32-.73,2.25-.93,4.51-1.87,7.58-3.14Z"></path>
      <path class="cls-8" d="M199.69,187.72c-1.38,1.11-2.44,1-3.66.76.93-1.06,1.94-1.32,3.66-.76Z"></path>
    </g>
  </g>
</svg><style>@media (prefers-color-scheme: light) { :root { filter: none; } }
</style></svg>